<svg xmlns="http://www.w3.org/2000/svg" width="742.753" height="742.753" viewBox="0 0 196.52 196.52">
  <g style="display:inline">
    <path d="M181.13 275.137a68.892 68.892 0 0 1-29.464 29.328l161.758 162.389 38.998-19.764L181.13 275.137zm213.364 214.187-38.998 19.764 81.963 82.283a68.892 68.892 0 0 1 29.47-29.332l-72.435-72.715zM581.646 339.39 490.07 385.8l6.752 43.19 103.615-52.513a68.892 68.892 0 0 1-18.79-37.086zm-144.738 73.352L220.383 522.477a68.892 68.892 0 0 1 18.795 37.09L443.66 455.933l-6.752-43.192zM367.275 142.438l-104.48 203.97 30.848 30.967 110.623-215.957a68.892 68.892 0 0 1-36.99-18.98zM235.621 399.459 182.7 502.773a68.892 68.892 0 0 1 36.987 18.979l46.78-91.328-30.845-30.965zM150.768 304.918a68.892 68.892 0 0 1-34.416 7.195 68.892 68.892 0 0 1-6.65-.695l30.902 197.662a68.892 68.892 0 0 1 34.416-7.195 68.892 68.892 0 0 1 6.646.695l-30.898-197.662zM239.342 560.545a68.892 68.892 0 0 1 .72 13.877 68.892 68.892 0 0 1-7.267 27.18l197.629 31.712a68.892 68.892 0 0 1-.723-13.878 68.892 68.892 0 0 1 7.27-27.178l-197.63-31.713zM601.133 377.2 509.914 555.28a68.892 68.892 0 0 1 36.994 18.983l91.217-178.08a68.892 68.892 0 0 1-36.992-18.985zM476.723 125.33a68.892 68.892 0 0 1-29.471 29.332l141.266 141.81a68.892 68.892 0 0 1 29.468-29.331L476.723 125.33zM347.787 104.63 169.211 195.13a68.892 68.892 0 0 1 18.793 37.086l178.574-90.502a68.892 68.892 0 0 1-18.79-37.082zM446.926 154.826a68.892 68.892 0 0 1-34.983 7.483 68.892 68.892 0 0 1-6.029-.633l15.818 101.29 43.163 6.927-17.97-115.067zm-16 167.028 37.4 239.482a68.892 68.892 0 0 1 33.914-6.943 68.892 68.892 0 0 1 7.207.79L474.09 328.778l-43.164-6.923zM188.13 232.975a68.892 68.892 0 0 1 .759 14.095 68.892 68.892 0 0 1-7.16 26.983l101.369 16.281 19.923-38.908-114.89-18.451zm173.737 27.9-19.926 38.912 239.514 38.467a68.892 68.892 0 0 1-.695-13.719 68.892 68.892 0 0 1 7.35-27.324l-226.243-36.336z" transform="scale(.26458)" />
  </g>
  <g style="display:inline;opacity:1" transform="rotate(3.118 600.365 106.46)">
    <circle cx="106.266" cy="51.536" r="16.571" />
    <circle cx="171.428" cy="110.193" r="16.571" />
    <circle cx="135.764" cy="190.277" r="16.571" />
    <circle cx="48.559" cy="181.114" r="16.571" />
    <circle cx="30.329" cy="95.367" r="16.571" />
  </g>
</svg>
